<?xml version="1.0" encoding="UTF-8" standalone="no"?>
<!DOCTYPE svg PUBLIC "-//W3C//DTD SVG 1.1//EN" "http://www.w3.org/Graphics/SVG/1.1/DTD/svg11.dtd">
<svg width="100%" height="100%" viewBox="0 0 13395 7563" version="1.1" xmlns="http://www.w3.org/2000/svg" xmlns:xlink="http://www.w3.org/1999/xlink" xml:space="preserve" xmlns:serif="http://www.serif.com/" style="fill-rule:evenodd;clip-rule:evenodd;stroke-linecap:round;stroke-linejoin:round;stroke-miterlimit:1.5;">
    <g id="Artboard1" transform="matrix(0.469399,0,0,0.393399,2190.28,2021.11)">
        <rect x="-4666.14" y="-5137.56" width="28538" height="19223.7" style="fill:none;"/>
        <g id="duck" transform="matrix(-8.8766,0,0,10.5914,19732,-9500.09)">
            <path d="M1361.89,1107.37C1431.22,1124.53 1537.76,1198.25 1561.89,1340.61C1582.11,1459.92 1546.42,1612.93 1419.18,1698.74C1313.36,1770.11 1109.87,1811.94 844.413,1776.79C687.152,1755.97 533.01,1668.55 471.254,1541.69C362.405,1318.09 487.34,1118.63 501.818,1081.63C516.294,1044.63 537.492,911.988 625.681,893.422C702.089,877.336 703.577,972.274 754.369,999.59C802.225,1025.33 859.42,1024.14 929.708,1031.23C1046.01,1042.96 1196.9,1066.65 1343.12,1100.19L1361.89,1107.37Z" style="fill:rgb(252,220,45);fill-rule:nonzero;"/>
            <path d="M474.835,1166.88C482.003,1148.63 489.184,1132.82 495.344,1119.86C499.047,1112.06 502.38,1105.3 505.141,1099.6C506.522,1096.74 507.762,1094.16 508.84,1091.82C509.92,1089.47 510.839,1087.39 511.596,1085.45C512.614,1082.85 513.603,1079.99 514.617,1076.85C516.515,1070.98 518.495,1064.14 520.703,1056.58C524.56,1043.35 529.1,1027.89 534.828,1011.94C539.123,999.98 544.084,987.755 549.882,976.043C558.574,958.465 569.168,942.084 581.996,929.365C588.411,922.999 595.371,917.536 602.959,913.192C610.553,908.849 618.772,905.61 627.844,903.697C633.115,902.587 637.841,902.1 642.103,902.099C648.473,902.106 653.806,903.167 658.61,905.007C662.81,906.624 666.628,908.863 670.275,911.709C676.646,916.673 682.453,923.583 688.013,931.72C692.186,937.813 696.217,944.561 700.338,951.539C706.44,961.853 712.714,972.669 720.285,982.643C693.78,952.444 683.457,917.528 651.027,917.528C648.271,917.528 645.361,917.779 642.262,918.308C565.928,931.354 535.668,1048.26 523.714,1084.12C515.822,1107.8 496.763,1128.31 474.835,1166.88Z" style="fill:rgb(253,243,174);fill-rule:nonzero;"/>
            <path d="M1423.83,1258.44C1268.43,1331.64 1010.85,1210.49 950.226,1150.72C894.316,1095.57 936.154,1064.9 997.152,1068.58L1036.94,1044.16C1131.85,1057.31 1238.69,1076.23 1343.13,1100.18L1361.88,1107.38C1383.84,1112.81 1409.52,1123.91 1435.17,1141.09C1468.64,1188.46 1477.11,1233.34 1423.83,1258.44Z" style="fill:rgb(253,186,37);fill-rule:nonzero;"/>
            <path d="M678.846,1020.5C642.105,1026.99 595.312,1038.61 602.711,1017.37C610.112,996.124 639.353,971.334 670.734,971.258C697.061,971.193 724.242,995.414 723.673,1005.7C723.104,1015.98 699.054,1016.92 678.846,1020.5Z" style="fill:rgb(253,186,37);fill-rule:nonzero;"/>
            <path d="M1419.19,1698.75C1313.35,1770.1 1109.86,1811.94 844.418,1776.79C687.14,1755.96 533.004,1668.56 471.254,1541.68C426.547,1449.88 421.287,1362.1 431.601,1287.99C453.289,1461.08 556.331,1412.99 556.331,1412.99L1002.45,1296.05C1089.13,1406.71 1030.32,1484.82 1077.45,1531.95C1171.37,1625.87 1524.38,1594.21 1553.89,1421.87C1560.76,1381.77 1561.88,1340.62 1561.88,1340.62C1582.1,1459.92 1546.41,1612.93 1419.19,1698.75Z" style="fill:rgb(253,186,37);fill-rule:nonzero;"/>
            <g transform="matrix(-0.24,0,0,0.24,4498.49,-714.258)">
                <path d="M15497.7,7185.44C15498.5,7182.06 15179.7,7233.92 15156.9,7271.82C14666.8,8087.65 13199.5,7838.66 12834.6,7690.18C12818.5,7683.66 12784.8,7705.74 12782.2,7707.4C12463.8,7918 12364.3,8086.29 12270,8421.75C12079.1,9101 12365.1,9660.76 12607.6,9885.61C13232.3,10465 14220.3,10446.9 14491.8,10457.5C14706.8,10465.8 15255.2,10432.3 15690.4,10290.4C16038,10177 16326.9,9957.84 16321.7,9952.18C16042.8,9648.67 15470.8,7299.8 15497.7,7185.44Z" style="fill:rgb(0,140,255);"/>
            </g>
            <path d="M1419.19,1698.75C1313.35,1770.1 1109.86,1811.94 844.418,1776.79C689.227,1756.24 716.979,1746.71 585.372,1674.41C616.137,1615.01 630.751,1590.96 630.751,1590.96L1002.45,1296.05C1089.13,1406.71 1030.32,1484.82 1077.45,1531.95C1171.37,1625.87 1524.38,1594.21 1553.89,1421.87C1560.76,1381.77 1561.88,1340.62 1561.88,1340.62C1582.1,1459.92 1546.41,1612.93 1419.19,1698.75Z" style="fill:rgb(21,99,175);fill-rule:nonzero;"/>
            <path d="M1423.83,1258.44C1268.43,1331.64 1010.85,1210.49 950.226,1150.72C929.603,1130.38 920.013,1112.81 924.311,1100.18C925.1,1097.86 979.504,1135.6 1032.07,1150.72C1093.65,1168.44 1202.98,1167.98 1309.61,1158.69C1309.61,1158.69 1362.46,1152.6 1382.86,1141.09C1398.04,1132.52 1416.62,1129.13 1435.17,1141.09C1468.64,1188.46 1477.11,1233.34 1423.83,1258.44Z" style="fill:rgb(0,98,179);fill-rule:nonzero;"/>
            <g transform="matrix(-0.24,0,0,0.24,4498.49,-714.258)">
                <path d="M13578,8836.71L13217.1,8355.23L12806.2,8760.3L13049.9,9532.11L13578,8836.71Z" style="fill:none;stroke:rgb(198,0,0);stroke-width:91.67px;"/>
            </g>
            <g transform="matrix(-0.24,0,0,0.24,4498.49,-714.258)">
                <path d="M13578,8836.71L13217.1,8355.23L12806.2,8760.3L13049.9,9532.11L13578,8836.71Z" style="fill:rgb(252,220,45);"/>
            </g>
            <g transform="matrix(-0.237146,0.0368992,0.0368992,0.237146,3632.03,-1304.02)">
                <g transform="matrix(554.167,0,0,554.167,10734.3,9945.52)">
                    <path d="M0.978,-0.785C1.125,-0.783 1.28,-0.711 1.28,-0.583C1.28,-0.253 0.601,0.142 0.155,0.142C0.115,0.142 0.046,0.135 0.046,0.092C0.046,-0.012 0.257,-0.16 0.419,-0.235C0.423,-0.238 0.425,-0.239 0.425,-0.24C0.212,-0.165 0.001,-0.009 0.001,0.102C0.001,0.192 0.117,0.207 0.177,0.207C0.693,0.207 1.332,-0.181 1.34,-0.52C1.345,-0.706 1.174,-0.819 0.905,-0.818C0.631,-0.817 0.327,-0.674 0.327,-0.523C0.327,-0.475 0.366,-0.433 0.41,-0.433C0.391,-0.444 0.378,-0.466 0.378,-0.493C0.378,-0.592 0.683,-0.789 0.978,-0.785ZM0.919,-0.543C0.959,-0.585 0.977,-0.603 0.994,-0.617C1.019,-0.637 1.041,-0.648 1.057,-0.639C1.072,-0.627 1.049,-0.672 1.004,-0.688C0.997,-0.691 0.988,-0.693 0.981,-0.693C0.941,-0.693 0.873,-0.619 0.851,-0.594C0.711,-0.44 0.523,-0.156 0.523,-0.085C0.523,-0.065 0.538,-0.055 0.551,-0.055C0.571,-0.055 0.616,-0.085 0.62,-0.099C0.596,-0.087 0.579,-0.084 0.562,-0.084C0.562,-0.127 0.774,-0.391 0.919,-0.543Z" style="fill:rgb(198,0,0);fill-rule:nonzero;"/>
                </g>
            </g>
            <g transform="matrix(-0.24,0,0,0.24,4498.49,-714.258)">
                <path d="M15497.7,7185.44C15498.5,7182.06 15179.7,7233.92 15156.9,7271.82C14666.8,8087.65 13199.5,7838.66 12834.6,7690.18C12818.5,7683.66 12784.8,7705.74 12782.2,7707.4C12463.8,7918 12364.3,8086.29 12270,8421.75C12079.1,9101 12365.1,9660.76 12607.6,9885.61C13232.3,10465 14220.3,10446.9 14491.8,10457.5C14706.8,10465.8 15255.2,10432.3 15690.4,10290.4C16038,10177 16326.9,9957.84 16321.7,9952.18C16042.8,9648.67 15470.8,7299.8 15497.7,7185.44Z" style="fill:none;stroke:rgb(35,56,97);stroke-width:58.33px;"/>
            </g>
            <path d="M1359.36,1117.56C1375.61,1121.58 1394.44,1129.04 1413.77,1140.14C1442.77,1156.79 1472.89,1181.59 1497.87,1215.06C1522.86,1248.54 1542.76,1290.65 1551.54,1342.37C1554.9,1362.23 1556.68,1383.1 1556.68,1404.44C1556.69,1456.03 1546.3,1510.37 1523.19,1560.25C1511.63,1585.2 1496.9,1609.05 1478.7,1630.95C1460.5,1652.86 1438.83,1672.83 1413.31,1690.04C1374.83,1716 1322.25,1738.33 1257.58,1754.05C1192.91,1769.79 1116.17,1778.96 1029.33,1778.96C972.319,1778.96 910.957,1775.01 845.791,1766.38C768.61,1756.17 692.05,1729.54 627.497,1690.05C595.218,1670.3 565.939,1647.36 541.032,1621.7C516.12,1596.04 495.587,1567.69 480.695,1537.09C448.97,1471.9 437.627,1409.05 437.616,1351.7C437.611,1284.26 453.387,1224.45 470.504,1178.24C479.061,1155.13 487.941,1135.44 495.344,1119.86C499.047,1112.06 502.38,1105.3 505.141,1099.6C506.522,1096.74 507.762,1094.16 508.84,1091.82C509.92,1089.47 510.839,1087.39 511.596,1085.45C512.614,1082.85 513.603,1079.99 514.617,1076.85C516.515,1070.98 518.495,1064.14 520.703,1056.58C524.56,1043.35 529.1,1027.89 534.828,1011.94C539.123,999.98 544.084,987.755 549.882,976.043C558.574,958.465 569.168,942.084 581.996,929.365C588.411,922.999 595.371,917.536 602.959,913.192C610.553,908.849 618.772,905.61 627.844,903.697C633.115,902.587 637.841,902.1 642.103,902.099C648.473,902.106 653.806,903.167 658.61,905.007C662.81,906.624 666.628,908.863 670.275,911.709C676.646,916.673 682.453,923.583 688.013,931.72C692.186,937.813 696.217,944.561 700.338,951.539C706.53,962.005 712.899,972.989 720.622,983.084C724.487,988.129 728.701,992.954 733.445,997.335C738.186,1001.71 743.467,1005.65 749.396,1008.84C762.16,1015.7 775.482,1020.73 789.293,1024.52C810.019,1030.2 831.835,1033.12 854.96,1035.34C878.09,1037.55 902.552,1039.04 928.654,1041.67C1044.47,1053.35 1195.04,1076.99 1340.77,1110.43L1345.47,1089.96C1198.76,1056.31 1047.56,1032.56 930.761,1020.78C895.276,1017.21 863.422,1015.72 834.99,1011.99C820.772,1010.13 807.414,1007.72 794.849,1004.27C782.279,1000.82 770.506,996.346 759.343,990.343C754.511,987.743 750.11,984.348 745.947,980.24C738.662,973.069 732.189,963.675 725.906,953.401C721.185,945.7 716.56,937.529 711.591,929.5C707.862,923.478 703.936,917.532 699.565,911.924C696.285,907.72 692.753,903.704 688.846,900.019C682.995,894.495 676.261,889.705 668.446,886.342C660.64,882.971 651.802,881.09 642.103,881.1C636.235,881.099 630.05,881.772 623.518,883.147C611.299,885.716 600.177,890.294 590.195,896.339C581.457,901.628 573.584,908.028 566.486,915.177C554.063,927.695 543.984,942.485 535.582,957.992C522.992,981.258 514.146,1006.21 507.353,1027.94C503.961,1038.81 501.089,1048.87 498.572,1057.45C497.313,1061.73 496.144,1065.65 495.053,1069.09C493.964,1072.52 492.949,1075.48 492.04,1077.8C491.527,1079.11 490.752,1080.9 489.77,1083.03C487.925,1087.03 485.361,1092.26 482.322,1098.5C476.999,1109.44 470.217,1123.53 463.058,1140.27C441.585,1190.5 416.628,1264.67 416.616,1351.7C416.605,1411.81 428.594,1478.07 461.814,1546.29C477.799,1579.12 499.691,1609.27 525.965,1636.33C565.385,1676.92 614.659,1710.62 669.049,1736.2C723.444,1761.78 782.973,1779.24 843.035,1787.2C909.075,1795.94 971.349,1799.96 1029.33,1799.96C1117.65,1799.96 1195.99,1790.64 1262.54,1774.45C1329.09,1758.25 1383.86,1735.21 1425.05,1707.45C1452.24,1689.11 1475.43,1667.76 1494.86,1644.37C1524.01,1609.29 1544.72,1569.65 1558.13,1528.64C1571.54,1487.63 1577.68,1445.23 1577.68,1404.44C1577.68,1381.93 1575.81,1359.91 1572.24,1338.86C1566.02,1302.16 1554.46,1269.76 1539.48,1241.59C1517.01,1199.33 1486.89,1166.63 1455.64,1142.82C1440.01,1130.91 1424.09,1121.22 1408.65,1113.64C1393.2,1106.06 1378.23,1100.6 1364.41,1097.17L1359.36,1117.56Z" style="fill:rgb(0,0,93);fill-rule:nonzero;"/>
            <path d="M969.165,1254.99C1009.1,1288.87 1031.9,1350.77 1031.91,1417.29C1031.93,1511.13 988.42,1601.76 892.173,1639.28C797.265,1676.28 647.665,1648.4 554.365,1530.97C512.486,1478.25 478.493,1367.42 506.643,1301.47C500.478,1227.48 530.872,1193.94 548.467,1185.56C585.465,1167.96 615.502,1212.16 677.961,1223.99C711.707,1230.39 748.235,1226.36 785.239,1222.34C849.069,1215.39 914.318,1208.45 969.165,1254.99Z" style="fill:rgb(252,220,45);fill-rule:nonzero;"/>
            <path d="M1031.92,1417.29C1031.92,1511.11 988.409,1601.76 892.164,1639.29C797.251,1676.28 647.657,1648.41 554.35,1530.96C513.331,1479.35 479.895,1371.94 504.998,1305.58C511.726,1316.33 518.523,1328.19 518.523,1328.19C508.396,1436.77 577.95,1564.39 712.003,1589.15C850.48,1614.73 932.01,1570.65 979.825,1484.7C1018.87,1414.51 1015.12,1322.89 1015.12,1322.89C1026.06,1351.15 1031.9,1383.63 1031.92,1417.29Z" style="fill:rgb(253,186,37);fill-rule:nonzero;"/>
            <path d="M502.336,1313.47C503.551,1309.35 504.995,1305.33 506.637,1301.48C505.847,1291.96 505.66,1283.13 505.973,1274.92C505.663,1283.12 505.851,1291.97 506.643,1301.47C504.999,1305.32 503.567,1309.33 502.336,1313.47ZM1002.46,1296.07C1002.46,1296.06 1002.45,1296.05 1002.45,1296.05C993.292,1279.95 982.131,1265.99 969.165,1254.99C935.18,1226.15 897.206,1217.85 858.045,1217.36C897.218,1217.84 935.197,1226.15 969.18,1255C982.16,1266 993.308,1279.95 1002.46,1296.07ZM717.349,1227.34C712.085,1227.34 706.861,1227.2 701.688,1226.88C706.589,1227.18 711.534,1227.32 716.512,1227.33L717.308,1227.33C747.842,1227.33 779.802,1222.54 811.699,1219.6C802.871,1220.42 794.044,1221.38 785.239,1222.34C762.24,1224.84 739.426,1227.34 717.349,1227.34ZM682.93,1224.86C681.267,1224.59 679.61,1224.3 677.961,1223.99C672.055,1222.87 666.44,1221.46 661.082,1219.85C666.438,1221.46 672.05,1222.87 677.952,1223.98C679.604,1224.3 681.264,1224.59 682.93,1224.86Z" style="fill:rgb(253,243,174);fill-rule:nonzero;"/>
            <path d="M1004.91,1300.53C1004.11,1299.02 1003.29,1297.53 1002.45,1296.06C1002.45,1296.05 1002.46,1296.06 1002.46,1296.07C1003.29,1297.53 1004.11,1299.02 1004.91,1300.53Z" style="fill:rgb(254,228,168);fill-rule:nonzero;"/>
            <path d="M1013.65,1363.1C967.463,1264.76 912.466,1254.64 862.395,1254.64C859.065,1254.64 855.759,1254.69 852.477,1254.76C852.512,1254.96 852.546,1255.17 852.546,1255.37C854.458,1279.18 821.774,1301.2 779.491,1304.62C775.804,1304.92 772.16,1305.06 768.589,1305.06C731.247,1305.06 701.283,1289.4 699.537,1267.7C699.469,1267.15 699.469,1266.54 699.469,1265.99C622.213,1263.26 601.824,1224.56 570.539,1218.59C568.282,1218.16 566.112,1217.95 564.038,1217.95C520.984,1217.95 516.674,1307.15 520.844,1331.94L518.401,1329.54C518.44,1329.09 518.481,1328.64 518.523,1328.19C518.523,1328.19 511.726,1316.33 504.998,1305.58C503.996,1308.23 503.088,1310.93 502.27,1313.71L502.266,1313.7C502.289,1313.63 502.313,1313.55 502.336,1313.47C503.567,1309.33 504.999,1305.32 506.643,1301.47C505.851,1291.97 505.663,1283.12 505.973,1274.92C508.092,1219.27 533.147,1192.85 548.475,1185.56C554.483,1182.7 560.311,1181.48 566.12,1181.48C592.697,1181.48 618.957,1207.14 661.082,1219.85C666.44,1221.46 672.055,1222.87 677.961,1223.99C679.61,1224.3 681.267,1224.59 682.93,1224.86C689.097,1225.84 695.355,1226.49 701.688,1226.88C706.861,1227.2 712.085,1227.34 717.349,1227.34C739.426,1227.34 762.24,1224.84 785.239,1222.34C794.044,1221.38 802.871,1220.42 811.699,1219.6C818.126,1219.01 824.552,1218.5 830.961,1218.11C838.783,1217.63 846.59,1217.33 854.348,1217.33C855.581,1217.33 856.814,1217.34 858.045,1217.36C897.206,1217.85 935.18,1226.15 969.165,1254.99C982.131,1265.99 993.292,1279.95 1002.45,1296.06C1003.29,1297.53 1004.11,1299.02 1004.91,1300.53C1008.69,1307.62 1012.1,1315.09 1015.12,1322.89C1015.08,1322.85 1015.04,1322.83 1015.01,1322.83C1014.44,1322.83 1014.66,1328.58 1015.15,1336.12C1015.01,1343 1014.61,1352.26 1013.65,1363.1Z" style="fill:rgb(253,243,174);fill-rule:nonzero;"/>
            <path d="M1017.35,1371.13C1017.33,1371.13 1017.29,1371.09 1017.25,1371C1016.06,1368.31 1014.86,1365.68 1013.65,1363.1C1014.61,1352.26 1015.01,1343 1015.15,1336.12C1015.37,1339.5 1015.64,1343.24 1015.93,1346.98C1016.84,1359.06 1017.83,1371.13 1017.35,1371.13ZM518.401,1329.54L502.27,1313.71C503.088,1310.93 503.996,1308.23 504.998,1305.58C511.726,1316.33 518.523,1328.19 518.523,1328.19C518.481,1328.64 518.44,1329.09 518.401,1329.54Z" style="fill:rgb(254,228,168);fill-rule:nonzero;"/>
            <path d="M969.165,1254.99C1009.1,1288.87 1031.9,1350.77 1031.91,1417.29C1031.93,1511.13 988.42,1601.76 892.173,1639.28C797.265,1676.28 647.665,1648.4 554.366,1530.97C512.485,1478.25 478.493,1367.42 506.644,1301.47C500.478,1227.48 530.873,1193.94 548.467,1185.56C585.465,1167.96 615.501,1212.16 677.96,1223.99C769.919,1241.42 882.521,1181.47 969.165,1254.99Z" style="fill:none;stroke:rgb(0,0,93);stroke-width:21px;stroke-linecap:butt;stroke-miterlimit:2;"/>
            <path d="M626.485,1413C617.842,1411.01 609.389,1408.18 601.08,1404.96C592.792,1401.68 584.669,1397.9 576.803,1393.57C561.099,1384.92 546.266,1374.11 533.787,1360.6C521.206,1347.22 511.175,1331.02 504.915,1313.26C501.874,1304.37 499.479,1295.17 498.328,1285.8L497.838,1282.29C497.761,1281.71 497.667,1281.12 497.604,1280.54L497.482,1278.78L497.004,1271.72C496.778,1269.35 496.873,1267.01 496.857,1264.65L496.881,1257.58L517.809,1259.32L517.182,1265.5C516.991,1267.57 516.685,1269.64 516.69,1271.7L516.494,1277.92L516.442,1279.47C516.445,1279.99 516.479,1280.51 516.498,1281.02L516.625,1284.12C516.801,1292.42 518.109,1300.62 519.995,1308.71C523.943,1324.85 531.395,1340.29 541.806,1353.82C552.094,1367.46 565.16,1379.2 579.553,1389.1C586.761,1394.05 594.33,1398.53 602.159,1402.57C610.012,1406.54 618.089,1410.17 626.485,1413Z" style="fill:rgb(0,0,93);fill-rule:nonzero;"/>
            <path d="M1309.53,1135.19C1342.71,1132.06 1419.84,1122.1 1470.21,1080.26C1534.26,1018.02 1544.41,851.416 1544.41,851.416C1574.76,602.265 1379.31,471.163 1192.92,476.837C946.712,484.333 805.844,663.391 820.256,859.155C833.877,1044.17 984.936,1113.8 1018.26,1127.53C1130.39,1157.96 1231.99,1143.96 1309.53,1135.19Z" style="fill:rgb(252,220,45);fill-rule:nonzero;"/>
            <path d="M833.041,869.035C831.367,852.859 830.786,836.489 831.34,820.216C831.617,811.211 832.258,802.223 833.21,793.27C833.649,788.788 834.286,784.331 834.882,779.869C835.594,775.425 836.259,770.972 837.129,766.556C840.423,748.857 845.114,731.424 851.138,714.459C854.185,705.99 857.553,697.637 861.236,689.422C864.947,681.219 869.019,673.182 873.369,665.299C890.832,633.793 913.626,605.241 940.461,581.102C967.33,556.988 998.163,537.289 1031.27,522.615C1064.39,507.911 1099.64,497.969 1135.62,492.535C1137.86,492.161 1140.12,491.85 1142.37,491.561L1149.14,490.657L1155.93,489.907C1158.19,489.655 1160.46,489.397 1162.73,489.222C1167.26,488.822 1171.8,488.411 1176.36,488.162C1178.63,488.028 1180.9,487.844 1183.18,487.751L1190.02,487.467C1194.85,487.271 1199.68,487.175 1204.5,487.175C1217.8,487.175 1231.07,487.905 1244.3,489.276C1280.32,493.141 1315.81,502.173 1349.11,516.301C1382.4,530.393 1413.43,549.768 1440.16,573.89C1453.55,585.92 1465.75,599.216 1476.7,613.455C1482.13,620.611 1487.24,628.002 1492.02,635.602C1496.78,643.22 1501.12,651.084 1505.17,659.1C1505.29,659.326 1505.4,659.552 1505.51,659.779C1443.32,569.709 1335.79,521.358 1228.13,518.334C1228.2,518.539 1228.24,518.71 1228.27,518.915C1234.04,546.784 1193.37,578.752 1137.42,590.296C1123.67,593.14 1110.27,594.486 1097.8,594.487C1059.82,594.487 1030.45,581.983 1025.77,561.231C903.437,622.019 834.223,740.013 833.041,869.035Z" style="fill:rgb(253,243,174);fill-rule:nonzero;"/>
            <path d="M1526.77,962.161C1515.71,1006.42 1498.05,1053.21 1470.21,1080.26C1419.84,1122.1 1342.72,1132.08 1309.52,1135.18C1231.99,1143.96 1130.39,1157.96 1018.26,1127.53C986.258,1114.35 845.613,1049.56 822.525,880.534C824.984,888.492 875.429,1048.26 1017.41,1055.5C1173.93,1063.46 1168.23,958.166 1230.08,939.961C1250.33,933.984 1405.73,949.115 1526.77,962.161Z" style="fill:rgb(253,186,37);fill-rule:nonzero;"/>
            <path d="M1309.53,1135.19C1323.7,1132.59 1337.75,1129.69 1351.59,1126.2C1358.51,1124.44 1365.39,1122.58 1372.18,1120.51C1378.99,1118.48 1385.71,1116.23 1392.34,1113.82C1405.61,1108.98 1418.5,1103.35 1430.71,1096.74C1442.88,1090.06 1454.37,1082.37 1464.54,1073.43L1464.03,1073.9C1475.63,1061.3 1484.63,1045.94 1492.08,1029.77C1499.54,1013.56 1505.39,996.41 1510.35,978.954C1515.26,961.476 1519.32,943.661 1522.68,925.679C1526.05,907.701 1528.84,889.557 1530.92,871.364C1531.43,866.817 1531.92,862.268 1532.35,857.737L1532.66,854.348L1532.94,850.924L1532.99,850.286L1533.04,849.851L1533.14,848.98L1533.35,847.239L1533.75,843.757C1534.35,839.06 1534.69,834.597 1535.1,830.077C1535.33,827.821 1535.45,825.56 1535.59,823.301L1536.01,816.521C1536.35,807.478 1536.6,798.425 1536.31,789.392C1536.28,784.87 1535.97,780.366 1535.76,775.854C1535.64,773.598 1535.41,771.354 1535.24,769.103C1535.05,766.855 1534.9,764.601 1534.62,762.363L1533.88,755.639C1533.61,753.399 1533.26,751.175 1532.95,748.94C1532.39,744.465 1531.51,740.046 1530.78,735.599C1529.06,726.759 1527.04,717.977 1524.57,709.325C1522.06,700.691 1519.32,692.117 1516.04,683.747C1512.78,675.377 1509.22,667.119 1505.17,659.1C1501.12,651.084 1496.78,643.22 1492.02,635.602C1487.24,628.002 1482.13,620.611 1476.7,613.455C1465.75,599.216 1453.55,585.92 1440.16,573.89C1413.43,549.768 1382.4,530.393 1349.11,516.301C1315.81,502.173 1280.32,493.141 1244.3,489.276C1226.27,487.407 1208.16,486.729 1190.02,487.467L1183.18,487.751C1180.9,487.844 1178.63,488.028 1176.36,488.162C1171.8,488.411 1167.26,488.822 1162.73,489.222C1160.46,489.397 1158.19,489.655 1155.93,489.907L1149.14,490.657L1142.37,491.561C1140.12,491.85 1137.86,492.161 1135.62,492.535C1099.64,497.969 1064.39,507.911 1031.27,522.615C998.163,537.289 967.33,556.988 940.461,581.102C913.626,605.241 890.832,633.793 873.369,665.299C869.019,673.182 864.947,681.219 861.236,689.422C857.553,697.637 854.185,705.99 851.138,714.459C845.114,731.424 840.423,748.857 837.129,766.556C836.259,770.972 835.594,775.425 834.882,779.869C834.286,784.331 833.649,788.788 833.21,793.27C832.258,802.223 831.617,811.211 831.34,820.216C830.728,838.208 831.502,856.32 833.608,874.157C835.741,891.998 839.272,909.641 844.364,926.816C849.506,943.971 856.126,960.681 864.343,976.609C872.488,992.577 882.252,1007.72 893.217,1021.99C904.149,1036.3 916.335,1049.7 929.428,1062.3C942.558,1074.86 956.631,1086.57 971.483,1097.42C986.338,1108.29 1001.95,1118.27 1018.26,1127.53C1000.15,1122.55 982.677,1115.14 965.93,1106.31C949.188,1097.45 933.235,1086.92 918.329,1074.97C910.879,1068.98 903.725,1062.6 896.848,1055.91C890.021,1049.18 883.466,1042.13 877.31,1034.73C864.959,1019.96 854.152,1003.86 844.899,986.894C835.699,969.9 828.103,952.009 822.327,933.557C816.519,915.111 812.567,896.129 810.119,877.017C807.826,857.872 806.979,838.669 807.596,819.439C807.844,809.828 808.632,800.234 809.701,790.678C810.204,785.895 810.91,781.135 811.581,776.374C812.369,771.629 813.114,766.877 814.071,762.161C821.387,724.385 834.87,687.779 853.954,654.373C873.013,620.955 897.579,590.726 926.313,565.262C954.977,539.698 987.784,518.978 1022.73,503.43C1057.71,487.894 1094.8,477.463 1132.45,471.775C1134.8,471.385 1137.16,471.058 1139.52,470.755L1146.6,469.811L1153.69,469.027C1156.05,468.764 1158.42,468.496 1160.79,468.312C1165.53,467.894 1170.26,467.467 1175.01,467.205C1177.38,467.066 1179.75,466.875 1182.12,466.778L1189.24,466.481C1208.32,465.707 1227.51,466.418 1246.53,468.395C1284.56,472.476 1322.03,482.001 1357.32,496.974C1392.6,511.91 1425.65,532.501 1454.23,558.304C1468.55,571.17 1481.64,585.419 1493.39,600.703C1499.21,608.383 1504.7,616.319 1509.84,624.482C1514.94,632.665 1519.62,641.109 1523.96,649.716C1541.22,684.228 1551.83,721.878 1556.15,760.013C1558.36,779.088 1558.98,798.295 1558.42,817.423L1558.09,824.589C1557.97,826.978 1557.88,829.369 1557.68,831.749C1557.32,836.508 1557.01,841.335 1556.49,845.884L1555.83,852.605L1555.6,856.145L1555.33,859.716C1554.96,864.461 1554.53,869.178 1554.03,873.887C1550.06,911.51 1543.44,948.889 1532.32,985.435C1526.74,1003.68 1519.96,1021.71 1511.18,1039.03C1508.99,1043.37 1506.66,1047.65 1504.14,1051.84C1501.63,1056.04 1499.03,1060.2 1496.13,1064.2C1493.25,1068.21 1490.24,1072.15 1486.95,1075.91C1483.65,1079.65 1480.14,1083.24 1476.4,1086.63L1475.95,1087.05L1475.89,1087.1C1463.91,1096.44 1450.85,1104 1437.33,1110.1C1423.79,1116.18 1409.8,1120.86 1395.64,1124.51C1381.48,1128.16 1367.14,1130.73 1352.76,1132.47C1338.37,1134.23 1323.93,1135.1 1309.53,1135.19Z" style="fill:rgb(0,0,93);fill-rule:nonzero;"/>
            <path d="M1497.82,1093.65C1531.77,1091.48 1560.93,1082.63 1581.32,1067.28C1600.24,1053.05 1603.16,1037.81 1599.17,1024.31C1603.17,1037.81 1600.26,1053.05 1581.32,1067.29C1560.93,1082.64 1531.77,1091.49 1497.82,1093.65Z" style="fill:rgb(242,247,252);fill-rule:nonzero;"/>
            <g id="sunglasses" transform="matrix(-0.24,0,0,0.24,4498.49,-714.258)">
                <path d="M14091.6,5946.72L12315.9,5884.49C12315.9,5884.49 12216.9,6226.52 12271.6,6344.79C12317.4,6443.98 12385.1,6518.26 12546.2,6530.03C12805.2,6548.93 12863.1,6469.1 12936.4,6344.79C13030.8,6184.74 13026.6,6117.93 13101.5,6123.17C13153.9,6126.84 13151.2,6165.07 13210.8,6344.79C13258.9,6489.94 13276.9,6606.1 13683.8,6607.35C14002.3,6608.32 14091.6,6054.38 14091.6,6054.38C14066.5,6053.07 14418.8,6030.64 14690.5,5989.34C14985.4,5944.53 15222.5,5770.78 15222.5,5770.78L15183.8,5701.25C15183.8,5701.25 14900.8,5866.42 14652.6,5903.19C14382.5,5943.2 14091.6,5946.72 14091.6,5946.72Z"/>
            </g>
            <path d="M1209.82,966.252C1228.06,919.89 1285.48,925.404 1343.24,895.675C1392.3,870.429 1408.5,848.06 1444.27,833.799C1473.81,822.027 1487.42,820.022 1521.86,806.004C1551.46,793.957 1589.9,772.637 1634.98,796.819C1691.29,827.032 1696.61,949.07 1568.99,986.796C1584.58,997.31 1624.37,1034.89 1581.32,1067.28C1543.98,1095.38 1477.27,1101.72 1405.48,1085.05C1377.58,1078.57 1337.67,1066.56 1298.86,1055.44C1262.99,1045.17 1237.74,1041.78 1218.77,1019.18C1205.09,1002.89 1204.02,980.995 1209.82,966.252Z" style="fill:rgb(247,144,41);fill-rule:nonzero;"/>
            <path d="M1481.08,1094.17C1457.35,1094.17 1431.76,1091.15 1405.49,1085.05C1381.21,1079.41 1347.81,1069.57 1313.96,1059.77L1313.96,1050.38C1375.72,1067.51 1428.57,1074.5 1470.73,1074.5C1555.65,1074.5 1597.28,1046.18 1581.49,1015.37C1580.12,1012.69 1582.2,1011.91 1585.06,1011.91C1588.97,1011.91 1594.33,1013.36 1594.33,1013.36L1594.36,1013.46C1594.64,1013.97 1595.97,1016.81 1598.16,1021.32C1598.53,1022.3 1598.87,1023.3 1599.17,1024.31C1603.16,1037.81 1600.24,1053.05 1581.32,1067.28C1560.93,1082.63 1531.77,1091.48 1497.82,1093.65C1492.36,1093.99 1486.77,1094.17 1481.08,1094.17Z" style="fill:rgb(253,200,147);fill-rule:nonzero;"/>
            <path d="M1657.49,817.269C1652.37,809.932 1646.11,803.742 1638.9,799.125C1646.12,803.735 1652.38,809.927 1657.49,817.269Z" style="fill:rgb(242,247,252);fill-rule:nonzero;"/>
            <path d="M1332.3,900.914C1335.94,899.291 1339.58,897.548 1343.23,895.664C1385.37,873.996 1403.26,854.442 1430.11,840.33C1403.25,854.453 1385.35,874.004 1343.24,895.675C1339.59,897.555 1335.94,899.294 1332.3,900.914ZM1477.87,821.838C1482,820.492 1486.15,819.142 1490.53,817.662C1486.15,819.143 1482,820.492 1477.87,821.838Z" style="fill:rgb(252,240,152);fill-rule:nonzero;"/>
            <path d="M1490.53,817.662C1492.86,816.876 1495.26,816.054 1497.75,815.174C1495.26,816.054 1492.86,816.877 1490.53,817.662Z" style="fill:rgb(170,146,139);fill-rule:nonzero;"/>
            <path d="M1266.27,934.884C1263.01,934.884 1266.35,932.067 1269.07,929.25C1271.8,926.433 1273.9,923.616 1268.16,923.616C1267.12,923.616 1265.83,923.708 1264.23,923.909C1284.5,917.172 1308.18,911.673 1332.3,900.914C1335.94,899.294 1339.59,897.555 1343.24,895.675C1385.35,874.004 1403.25,854.453 1430.11,840.33C1434.53,838.005 1439.2,835.826 1444.26,833.811C1457.58,828.5 1467.66,825.173 1477.87,821.838C1482,820.492 1486.15,819.143 1490.53,817.662C1492.86,816.877 1495.26,816.054 1497.75,815.174C1504.75,812.71 1512.54,809.799 1521.86,806.011C1541.63,797.959 1565.34,785.779 1592.33,785.779C1605.76,785.779 1620,788.79 1634.97,796.823C1636.31,797.539 1637.62,798.307 1638.9,799.125C1646.11,803.742 1652.37,809.932 1657.49,817.269C1660.12,821.052 1662.45,825.14 1664.45,829.475C1663.88,828.941 1663.34,828.72 1662.82,828.72C1661.59,828.72 1660.45,829.932 1659.34,831.143C1658.23,832.354 1657.15,833.565 1656.04,833.565C1655.58,833.565 1655.12,833.36 1654.65,832.864C1634.76,811.958 1616.64,804.33 1597.83,804.33C1576.3,804.33 1553.85,814.315 1526.77,825.82C1495.55,839.085 1460.27,848.158 1442.61,857.697C1385.68,888.435 1367.97,915.046 1268.99,934.542C1267.8,934.777 1266.91,934.884 1266.27,934.884Z" style="fill:rgb(253,200,147);fill-rule:nonzero;"/>
            <path d="M1297.85,990.784C1412.79,979.071 1494.04,908.522 1554.11,872.48C1591.27,850.187 1627.04,842.328 1636.43,873.68C1642.55,907.789 1619.64,948.237 1506.94,990.388C1506.94,990.388 1581.64,994.772 1563.4,1028.48C1546.04,1060.56 1396.22,1034.16 1314.35,1003.64L1297.85,990.784Z" style="fill:rgb(242,105,36);fill-rule:nonzero;"/>
            <path d="M1466.39,992.729C1466.39,992.729 1508.81,1000.48 1496.89,1019.85C1493.68,1025.07 1485.11,1041.06 1389.2,1025.82C1361.98,1019.37 1335.82,1011.65 1314.34,1003.62L1297.84,990.782C1381.83,982.209 1447.84,942.25 1500.71,907.276C1535.52,884.78 1559.51,891.6 1549.62,922.731C1537.94,959.503 1466.39,992.729 1466.39,992.729Z" style="fill:rgb(234,86,36);fill-rule:nonzero;"/>
            <path d="M1209.82,966.251C1228.06,919.89 1285.48,925.404 1343.24,895.675C1392.3,870.429 1408.5,848.06 1444.27,833.799C1473.81,822.027 1487.42,820.022 1521.86,806.004C1551.46,793.957 1589.9,772.637 1634.98,796.819C1691.29,827.032 1696.61,949.07 1568.99,986.796C1584.58,997.31 1624.37,1034.89 1581.32,1067.28C1543.98,1095.38 1477.27,1101.72 1405.48,1085.05C1377.58,1078.57 1337.67,1066.56 1298.86,1055.44C1262.99,1045.17 1237.74,1041.78 1218.77,1019.18C1205.09,1002.89 1204.02,980.995 1209.82,966.251Z" style="fill:none;stroke:rgb(0,0,93);stroke-width:21px;stroke-linecap:butt;stroke-miterlimit:2;"/>
            <path d="M1636.43,873.68C1635.23,869.717 1633.47,865.901 1630.88,862.779C1628.33,859.632 1624.93,857.315 1621.18,856.051C1617.43,854.767 1613.41,854.408 1609.43,854.554C1605.43,854.731 1601.44,855.396 1597.51,856.356C1589.64,858.27 1582.02,861.151 1574.74,864.735C1567.45,868.317 1560.46,872.511 1553.63,877.012C1546.82,881.527 1540.19,886.374 1533.63,891.351C1527.06,896.32 1520.54,901.395 1514.01,906.496C1507.47,911.594 1500.91,916.703 1494.26,921.729C1487.58,926.723 1480.82,931.643 1473.91,936.394C1467.01,941.15 1459.96,945.738 1452.75,950.107C1445.54,954.461 1438.14,958.54 1430.6,962.355C1423.04,966.152 1415.34,969.712 1407.46,972.843C1403.53,974.42 1399.53,975.858 1395.54,977.303L1389.52,979.337C1387.52,980.014 1385.49,980.608 1383.47,981.247C1367.27,986.157 1350.79,989.801 1334.24,992.586C1317.68,995.351 1301.05,997.3 1284.44,998.621L1286.03,986.469C1309.73,994.529 1333.43,1002.84 1357.18,1010.65C1363.1,1012.63 1369.06,1014.6 1374.97,1016.46C1380.89,1018.33 1386.87,1020.05 1392.83,1021.81C1404.76,1025.29 1416.79,1028.42 1428.87,1031.09C1434.9,1032.47 1440.95,1033.67 1447,1034.71C1448.51,1034.95 1450.03,1035.22 1451.54,1035.45L1456.07,1036.09C1457.59,1036.31 1459.09,1036.44 1460.6,1036.62C1462.1,1036.8 1463.64,1036.95 1465.19,1037.08C1477.53,1038.21 1489.91,1038.94 1502.27,1039.13C1514.62,1039.27 1527.01,1038.94 1539.08,1037.03C1542.09,1036.54 1545.07,1035.92 1547.98,1035.1C1550.9,1034.3 1553.76,1033.32 1556.42,1031.97C1559.06,1030.62 1561.58,1028.97 1563.48,1026.69C1564.43,1025.55 1565.22,1024.27 1565.8,1022.86C1566.37,1021.45 1566.7,1019.92 1566.82,1018.34C1567.37,1021.45 1566.81,1024.89 1565.14,1027.81C1563.51,1030.75 1561.06,1033.19 1558.37,1035.13C1552.96,1039.06 1546.78,1041.49 1540.59,1043.4C1534.38,1045.32 1528.04,1046.63 1521.69,1047.61C1515.33,1048.61 1508.94,1049.25 1502.56,1049.68C1489.78,1050.53 1477,1050.45 1464.27,1049.78C1461.12,1049.61 1457.82,1049.34 1454.6,1049.05L1449.78,1048.54C1448.18,1048.35 1446.59,1048.12 1444.99,1047.92C1438.62,1047.05 1432.29,1046.01 1426.02,1044.8C1419.74,1043.61 1413.52,1042.2 1407.33,1040.72C1401.13,1039.25 1394.97,1037.67 1388.84,1036C1376.57,1032.69 1364.43,1028.77 1352.46,1024.8C1328.52,1016.65 1304.89,1007.93 1281.54,998.242C1278.28,997.083 1276.58,993.502 1277.73,990.243C1278.55,987.952 1280.56,986.429 1282.82,986.129L1283.13,986.089C1299.48,983.949 1315.74,981.716 1331.85,978.821C1347.94,975.892 1363.89,972.421 1379.45,967.803C1395.04,963.323 1410.13,957.478 1424.82,950.553C1432.17,947.088 1439.36,943.298 1446.48,939.323C1453.59,935.345 1460.59,931.132 1467.5,926.725C1474.41,922.325 1481.22,917.73 1487.98,913.033C1494.76,908.357 1501.5,903.577 1508.25,898.771C1521.75,889.163 1535.33,879.439 1549.81,870.893C1557.05,866.621 1564.53,862.685 1572.35,859.442C1580.16,856.203 1588.29,853.583 1596.67,852.208C1600.86,851.52 1605.13,851.136 1609.42,851.276C1613.7,851.44 1618.05,852.167 1622.02,853.937C1626,855.67 1629.48,858.521 1631.84,862.062C1634.23,865.594 1635.62,869.623 1636.43,873.68Z" style="fill:rgb(0,0,93);fill-rule:nonzero;"/>
            <path d="M1431.22,994.772L1568.38,976.313L1569.6,997.278L1431.22,994.772Z" style="fill:rgb(0,0,93);fill-rule:nonzero;"/>
            <path d="M1568.15,962.766C1574.58,958.161 1580.92,953.678 1587.13,949.074C1593.34,944.468 1599.44,939.782 1605.24,934.804C1608.16,932.332 1611,929.782 1613.73,927.133C1616.48,924.496 1619.14,921.777 1621.65,918.916C1626.71,913.224 1631.14,907.022 1634.75,899.977C1633.65,907.849 1630.12,915.376 1625.56,921.959C1623.3,925.293 1620.71,928.378 1618,931.319C1616.65,932.805 1615.21,934.187 1613.79,935.596C1612.32,936.945 1610.85,938.309 1609.33,939.594C1603.27,944.782 1596.69,949.281 1589.82,953.214C1586.38,955.166 1582.86,956.973 1579.25,958.587C1575.62,960.166 1571.97,961.686 1568.15,962.766Z" style="fill:rgb(0,0,93);fill-rule:nonzero;"/>
            <path d="M1525.46,985.323C1531.85,987.819 1537.63,990.961 1543.26,994.303C1548.86,997.677 1554.28,1001.26 1559.51,1005.07C1553.59,1002.47 1547.56,1000.16 1541.5,998.117C1535.44,996.108 1529.29,994.365 1523.28,993.436L1525.46,985.323Z" style="fill:rgb(0,0,93);fill-rule:nonzero;"/>
            <path d="M1273.3,959.156C1286.2,969.808 1293.9,997.528 1271.18,1015.62" style="fill:rgb(247,144,41);fill-rule:nonzero;"/>
            <path d="M1273.3,959.156C1276.25,959.839 1278.91,961.414 1281.25,963.333C1283.59,965.271 1285.55,967.651 1287.18,970.251C1290.4,975.474 1292.1,981.741 1291.95,988.075C1291.83,994.4 1289.71,1000.77 1285.95,1005.74C1282.21,1010.72 1277.03,1014.32 1271.18,1015.62C1272.42,1012.85 1273.64,1010.42 1274.66,1008.02C1275.7,1005.63 1276.54,1003.32 1277.21,1001.06C1278.56,996.538 1279.24,992.206 1279.36,987.761C1279.48,983.321 1279.02,978.792 1278.07,974.088C1277.61,971.73 1276.99,969.336 1276.21,966.883C1275.44,964.411 1274.49,961.935 1273.3,959.156Z" style="fill:rgb(0,0,93);fill-rule:nonzero;"/>
            <g transform="matrix(-0.24,0,0,0.24,4503.41,-722.499)">
                <path d="M13690.5,6565.31C13802.5,6541.91 13905.5,6447.89 13929.6,6367.82" style="fill:none;stroke:white;stroke-width:37.5px;"/>
            </g>
            <g transform="matrix(0.127646,-0.20324,0.20324,0.127646,-1558.75,2738.26)">
                <path d="M13713.5,6538.42C13757,6537.03 13841.7,6482.03 13895.7,6423.34" style="fill:none;stroke:white;stroke-width:37.5px;"/>
            </g>
        </g>
        <g transform="matrix(2.13038,0,0,2.54195,-9393.22,-6578.62)">
            <g transform="matrix(1875,0,0,1875,2414.77,7622.21)">
                <path d="M0.426,0.01C0.305,0.01 0.214,-0.011 0.152,-0.055C0.091,-0.098 0.06,-0.171 0.06,-0.272C0.06,-0.373 0.091,-0.446 0.152,-0.489C0.214,-0.532 0.305,-0.554 0.426,-0.554C0.468,-0.554 0.509,-0.55 0.549,-0.543C0.589,-0.535 0.63,-0.523 0.67,-0.506C0.68,-0.502 0.685,-0.495 0.685,-0.487C0.685,-0.478 0.68,-0.473 0.669,-0.473C0.667,-0.473 0.664,-0.473 0.66,-0.475C0.623,-0.491 0.584,-0.502 0.543,-0.51C0.503,-0.518 0.464,-0.522 0.426,-0.522C0.31,-0.522 0.227,-0.502 0.177,-0.463C0.127,-0.423 0.102,-0.36 0.102,-0.272C0.102,-0.184 0.127,-0.121 0.177,-0.081C0.227,-0.042 0.31,-0.022 0.426,-0.022C0.464,-0.022 0.503,-0.026 0.543,-0.034C0.584,-0.042 0.623,-0.053 0.66,-0.069C0.664,-0.07 0.667,-0.071 0.669,-0.071C0.68,-0.071 0.686,-0.066 0.686,-0.056C0.686,-0.048 0.681,-0.042 0.67,-0.038C0.63,-0.021 0.589,-0.009 0.549,-0.001C0.509,0.006 0.468,0.01 0.426,0.01Z" style="fill:white;fill-rule:nonzero;"/>
            </g>
            <g transform="matrix(1875,0,0,1875,3763.34,7622.21)">
                <path d="M0.418,0.01C0.295,0.01 0.204,-0.013 0.146,-0.06C0.089,-0.106 0.06,-0.177 0.06,-0.272C0.06,-0.367 0.089,-0.438 0.146,-0.484C0.204,-0.531 0.295,-0.554 0.418,-0.554C0.542,-0.554 0.633,-0.531 0.691,-0.484C0.748,-0.438 0.777,-0.367 0.777,-0.272C0.777,-0.177 0.748,-0.106 0.691,-0.06C0.633,-0.013 0.542,0.01 0.418,0.01ZM0.418,-0.022C0.525,-0.022 0.605,-0.041 0.657,-0.079C0.71,-0.117 0.736,-0.181 0.736,-0.272C0.736,-0.363 0.71,-0.427 0.657,-0.465C0.605,-0.503 0.525,-0.522 0.418,-0.522C0.312,-0.522 0.232,-0.503 0.18,-0.465C0.128,-0.427 0.102,-0.363 0.102,-0.272C0.102,-0.181 0.128,-0.117 0.18,-0.079C0.232,-0.041 0.312,-0.022 0.418,-0.022Z" style="fill:white;fill-rule:nonzero;"/>
            </g>
            <g transform="matrix(1875,0,0,1875,5333.47,7622.21)">
                <path d="M0.1,-0C0.09,-0 0.084,-0.003 0.082,-0.01C0.079,-0.017 0.078,-0.025 0.078,-0.034L0.078,-0.512C0.078,-0.532 0.085,-0.542 0.098,-0.542C0.106,-0.542 0.116,-0.538 0.126,-0.528L0.626,-0.063L0.626,-0.507C0.626,-0.516 0.627,-0.525 0.629,-0.532C0.631,-0.54 0.637,-0.544 0.647,-0.544C0.655,-0.544 0.661,-0.54 0.664,-0.533C0.666,-0.526 0.667,-0.517 0.667,-0.507L0.667,-0.031C0.667,-0.01 0.662,-0 0.651,-0C0.643,-0 0.634,-0.005 0.623,-0.015L0.12,-0.481L0.12,-0.034C0.12,-0.025 0.118,-0.017 0.115,-0.01C0.113,-0.003 0.107,-0 0.1,-0Z" style="fill:white;fill-rule:nonzero;"/>
            </g>
            <g transform="matrix(1875,0,0,1875,6731.48,7622.21)">
                <path d="M0.405,0.01C0.359,0.01 0.313,0.007 0.268,0.001C0.223,-0.005 0.183,-0.012 0.148,-0.021C0.114,-0.029 0.088,-0.037 0.073,-0.044C0.064,-0.048 0.06,-0.055 0.06,-0.063C0.06,-0.072 0.064,-0.077 0.072,-0.077C0.075,-0.077 0.077,-0.077 0.079,-0.076C0.096,-0.069 0.122,-0.061 0.158,-0.053C0.193,-0.045 0.233,-0.038 0.278,-0.031C0.323,-0.025 0.368,-0.022 0.412,-0.022C0.455,-0.022 0.496,-0.026 0.532,-0.034C0.569,-0.042 0.599,-0.056 0.622,-0.075C0.644,-0.094 0.655,-0.119 0.655,-0.152C0.655,-0.178 0.647,-0.198 0.63,-0.212C0.613,-0.227 0.59,-0.237 0.562,-0.245C0.533,-0.252 0.501,-0.257 0.465,-0.26C0.429,-0.263 0.393,-0.265 0.354,-0.266C0.316,-0.268 0.28,-0.27 0.244,-0.274C0.208,-0.278 0.176,-0.284 0.147,-0.292C0.119,-0.3 0.096,-0.313 0.079,-0.33C0.062,-0.347 0.054,-0.37 0.054,-0.398C0.054,-0.429 0.062,-0.455 0.079,-0.475C0.096,-0.496 0.118,-0.512 0.146,-0.523C0.175,-0.535 0.207,-0.543 0.242,-0.547C0.277,-0.552 0.313,-0.554 0.35,-0.554C0.39,-0.554 0.429,-0.552 0.467,-0.547C0.505,-0.542 0.54,-0.536 0.57,-0.529C0.6,-0.521 0.624,-0.514 0.64,-0.506C0.645,-0.504 0.648,-0.499 0.648,-0.493C0.648,-0.488 0.646,-0.484 0.643,-0.48C0.64,-0.476 0.636,-0.474 0.63,-0.474C0.627,-0.474 0.624,-0.475 0.622,-0.476C0.588,-0.49 0.547,-0.502 0.498,-0.51C0.45,-0.518 0.401,-0.522 0.352,-0.522C0.307,-0.522 0.265,-0.518 0.226,-0.511C0.187,-0.504 0.155,-0.492 0.131,-0.474C0.107,-0.457 0.095,-0.432 0.095,-0.401C0.095,-0.378 0.104,-0.361 0.121,-0.349C0.138,-0.336 0.16,-0.327 0.189,-0.321C0.218,-0.315 0.25,-0.311 0.285,-0.308C0.321,-0.306 0.358,-0.304 0.396,-0.302C0.434,-0.299 0.471,-0.296 0.507,-0.292C0.542,-0.287 0.574,-0.28 0.603,-0.27C0.632,-0.259 0.654,-0.245 0.671,-0.226C0.688,-0.207 0.697,-0.182 0.697,-0.152C0.697,-0.121 0.689,-0.095 0.673,-0.074C0.656,-0.053 0.635,-0.036 0.607,-0.024C0.579,-0.012 0.548,-0.003 0.513,0.002C0.478,0.007 0.442,0.01 0.405,0.01Z" style="fill:white;fill-rule:nonzero;"/>
            </g>
            <g transform="matrix(1875,0,0,1875,8141.39,7622.21)">
                <path d="M0.388,0.01C0.281,0.01 0.201,-0.012 0.148,-0.055C0.095,-0.099 0.069,-0.172 0.069,-0.273L0.069,-0.51C0.069,-0.518 0.07,-0.526 0.073,-0.533C0.075,-0.54 0.081,-0.544 0.091,-0.544C0.099,-0.544 0.104,-0.54 0.107,-0.533C0.109,-0.526 0.11,-0.518 0.11,-0.51L0.11,-0.273C0.11,-0.217 0.119,-0.17 0.135,-0.133C0.152,-0.095 0.18,-0.068 0.221,-0.049C0.261,-0.031 0.317,-0.022 0.388,-0.022C0.459,-0.022 0.514,-0.031 0.554,-0.049C0.595,-0.068 0.623,-0.095 0.639,-0.133C0.656,-0.17 0.664,-0.217 0.664,-0.273L0.664,-0.51C0.664,-0.518 0.665,-0.526 0.668,-0.533C0.671,-0.54 0.676,-0.544 0.684,-0.544C0.694,-0.544 0.699,-0.54 0.702,-0.533C0.704,-0.526 0.706,-0.518 0.706,-0.51L0.706,-0.273C0.706,-0.172 0.679,-0.099 0.626,-0.055C0.574,-0.012 0.494,0.01 0.388,0.01Z" style="fill:white;fill-rule:nonzero;"/>
            </g>
            <g transform="matrix(1875,0,0,1875,9593.42,7622.21)">
                <path d="M0.098,-0C0.088,-0 0.082,-0.001 0.081,-0.003C0.079,-0.004 0.078,-0.01 0.078,-0.018L0.078,-0.512C0.078,-0.521 0.08,-0.528 0.083,-0.534C0.085,-0.541 0.092,-0.544 0.101,-0.544C0.109,-0.544 0.114,-0.541 0.116,-0.534C0.118,-0.527 0.12,-0.52 0.12,-0.512L0.12,-0.032L0.539,-0.032C0.546,-0.032 0.551,-0.031 0.554,-0.027C0.557,-0.024 0.559,-0.02 0.559,-0.016C0.559,-0.012 0.557,-0.008 0.554,-0.005C0.551,-0.002 0.546,-0 0.539,-0L0.098,-0Z" style="fill:white;fill-rule:nonzero;"/>
            </g>
            <g transform="matrix(1875,0,0,1875,10287.4,7622.21)">
                <path d="M0.329,-0C0.321,-0 0.315,-0.004 0.312,-0.011C0.309,-0.018 0.308,-0.027 0.308,-0.036L0.308,-0.512L0.045,-0.512C0.036,-0.512 0.028,-0.512 0.02,-0.513C0.013,-0.513 0.009,-0.518 0.009,-0.526C0.009,-0.535 0.013,-0.541 0.021,-0.542C0.029,-0.543 0.037,-0.544 0.045,-0.544L0.612,-0.544C0.621,-0.544 0.629,-0.543 0.636,-0.542C0.643,-0.541 0.647,-0.535 0.647,-0.526C0.647,-0.518 0.643,-0.513 0.636,-0.513C0.629,-0.512 0.621,-0.512 0.612,-0.512L0.35,-0.512L0.35,-0.036C0.35,-0.027 0.349,-0.018 0.346,-0.011C0.344,-0.004 0.339,-0 0.329,-0Z" style="fill:white;fill-rule:nonzero;"/>
            </g>
            <g transform="matrix(1875,0,0,1875,11516.9,7622.21)">
                <path d="M0.057,-0C0.049,-0 0.041,-0 0.033,-0.001C0.025,-0.002 0.021,-0.008 0.021,-0.017C0.021,-0.025 0.025,-0.03 0.032,-0.031C0.04,-0.032 0.048,-0.032 0.057,-0.032L0.231,-0.032L0.231,-0.512L0.057,-0.512C0.048,-0.512 0.04,-0.512 0.032,-0.513C0.025,-0.514 0.021,-0.519 0.021,-0.527C0.021,-0.536 0.025,-0.542 0.033,-0.542C0.041,-0.543 0.049,-0.544 0.057,-0.544L0.447,-0.544C0.456,-0.544 0.464,-0.543 0.471,-0.542C0.478,-0.542 0.482,-0.537 0.482,-0.528C0.482,-0.519 0.478,-0.514 0.471,-0.513C0.464,-0.512 0.456,-0.512 0.447,-0.512L0.272,-0.512L0.272,-0.032L0.447,-0.032C0.456,-0.032 0.464,-0.032 0.471,-0.031C0.478,-0.03 0.482,-0.025 0.482,-0.016C0.482,-0.007 0.478,-0.002 0.471,-0.001C0.464,-0 0.456,-0 0.447,-0L0.057,-0Z" style="fill:white;fill-rule:nonzero;"/>
            </g>
            <g transform="matrix(1875,0,0,1875,12460.8,7622.21)">
                <path d="M0.1,-0C0.09,-0 0.084,-0.003 0.082,-0.01C0.079,-0.017 0.078,-0.025 0.078,-0.034L0.078,-0.512C0.078,-0.532 0.085,-0.542 0.098,-0.542C0.106,-0.542 0.116,-0.538 0.126,-0.528L0.626,-0.063L0.626,-0.507C0.626,-0.516 0.627,-0.525 0.629,-0.532C0.631,-0.54 0.637,-0.544 0.647,-0.544C0.655,-0.544 0.661,-0.54 0.664,-0.533C0.666,-0.526 0.667,-0.517 0.667,-0.507L0.667,-0.031C0.667,-0.01 0.662,-0 0.651,-0C0.643,-0 0.634,-0.005 0.623,-0.015L0.12,-0.481L0.12,-0.034C0.12,-0.025 0.118,-0.017 0.115,-0.01C0.113,-0.003 0.107,-0 0.1,-0Z" style="fill:white;fill-rule:nonzero;"/>
            </g>
            <g transform="matrix(1875,0,0,1875,13858.9,7622.21)">
                <path d="M0.426,0.01C0.305,0.01 0.214,-0.011 0.152,-0.055C0.091,-0.098 0.06,-0.171 0.06,-0.272C0.06,-0.373 0.091,-0.446 0.152,-0.489C0.214,-0.532 0.305,-0.554 0.426,-0.554C0.468,-0.554 0.509,-0.55 0.549,-0.543C0.589,-0.535 0.63,-0.523 0.67,-0.506C0.68,-0.502 0.685,-0.495 0.685,-0.487C0.685,-0.478 0.68,-0.473 0.669,-0.473C0.667,-0.473 0.664,-0.473 0.66,-0.475C0.623,-0.491 0.584,-0.502 0.543,-0.51C0.503,-0.518 0.464,-0.522 0.426,-0.522C0.31,-0.522 0.227,-0.502 0.177,-0.463C0.127,-0.423 0.102,-0.36 0.102,-0.272C0.102,-0.184 0.127,-0.121 0.177,-0.081C0.227,-0.042 0.31,-0.022 0.426,-0.022C0.474,-0.022 0.521,-0.025 0.567,-0.032C0.612,-0.038 0.657,-0.047 0.702,-0.058L0.702,-0.262L0.453,-0.262C0.445,-0.262 0.437,-0.262 0.429,-0.264C0.422,-0.265 0.418,-0.27 0.418,-0.279C0.418,-0.287 0.422,-0.292 0.429,-0.294C0.437,-0.295 0.444,-0.296 0.453,-0.296L0.702,-0.296C0.715,-0.296 0.725,-0.293 0.729,-0.288C0.734,-0.283 0.737,-0.274 0.737,-0.262L0.737,-0.058C0.737,-0.048 0.733,-0.04 0.726,-0.034C0.718,-0.029 0.71,-0.026 0.702,-0.024C0.653,-0.014 0.607,-0.006 0.562,0C0.516,0.007 0.471,0.01 0.426,0.01Z" style="fill:white;fill-rule:nonzero;"/>
            </g>
        </g>
        <g transform="matrix(2.13038,0,0,2.54195,-9393.22,-15002.6)">
            <g transform="matrix(1333.33,0,0,1333.33,2414.77,8784.3)">
                <path d="M0.981,-0.223C0.99,-0.223 0.997,-0.219 1.002,-0.211C1.007,-0.203 1.009,-0.192 1.009,-0.178C1.009,-0.152 1.003,-0.131 0.99,-0.116C0.958,-0.077 0.926,-0.048 0.893,-0.027C0.86,-0.006 0.822,0.005 0.777,0.005C0.734,0.005 0.697,-0.007 0.667,-0.03C0.636,-0.053 0.607,-0.093 0.58,-0.15C0.558,-0.195 0.541,-0.229 0.528,-0.251C0.515,-0.272 0.503,-0.288 0.491,-0.297C0.478,-0.306 0.463,-0.312 0.445,-0.314C0.442,-0.3 0.435,-0.256 0.422,-0.182C0.417,-0.149 0.413,-0.128 0.412,-0.121C0.405,-0.08 0.392,-0.049 0.372,-0.028C0.352,-0.006 0.322,0.005 0.281,0.005C0.236,0.005 0.197,-0.008 0.163,-0.035C0.128,-0.061 0.102,-0.097 0.083,-0.145C0.064,-0.192 0.055,-0.245 0.055,-0.305C0.055,-0.417 0.075,-0.514 0.114,-0.595C0.153,-0.676 0.207,-0.739 0.278,-0.782C0.348,-0.825 0.429,-0.846 0.521,-0.846C0.585,-0.846 0.639,-0.836 0.682,-0.817C0.725,-0.798 0.757,-0.771 0.779,-0.737C0.8,-0.703 0.81,-0.665 0.81,-0.622C0.81,-0.585 0.801,-0.548 0.784,-0.513C0.766,-0.477 0.739,-0.445 0.704,-0.418C0.669,-0.391 0.626,-0.37 0.575,-0.357C0.607,-0.348 0.632,-0.334 0.649,-0.315C0.666,-0.296 0.684,-0.267 0.701,-0.23C0.72,-0.19 0.738,-0.161 0.757,-0.142C0.775,-0.123 0.796,-0.114 0.82,-0.114C0.841,-0.114 0.862,-0.121 0.881,-0.136C0.9,-0.15 0.925,-0.174 0.954,-0.209C0.962,-0.218 0.971,-0.223 0.981,-0.223ZM0.307,-0.315C0.284,-0.315 0.269,-0.32 0.261,-0.331C0.252,-0.342 0.248,-0.354 0.248,-0.367C0.248,-0.383 0.253,-0.396 0.264,-0.405C0.274,-0.414 0.286,-0.419 0.299,-0.419L0.324,-0.419C0.335,-0.484 0.345,-0.541 0.354,-0.588C0.363,-0.631 0.391,-0.653 0.438,-0.653C0.476,-0.653 0.495,-0.636 0.495,-0.602C0.495,-0.595 0.495,-0.589 0.494,-0.585L0.464,-0.419C0.5,-0.421 0.533,-0.43 0.563,-0.445C0.592,-0.46 0.616,-0.482 0.634,-0.509C0.651,-0.536 0.66,-0.567 0.66,-0.602C0.66,-0.644 0.646,-0.677 0.617,-0.701C0.588,-0.725 0.546,-0.737 0.491,-0.737C0.426,-0.737 0.369,-0.721 0.32,-0.689C0.271,-0.656 0.232,-0.608 0.205,-0.545C0.178,-0.481 0.164,-0.403 0.164,-0.312C0.164,-0.269 0.168,-0.233 0.177,-0.202C0.186,-0.171 0.196,-0.148 0.209,-0.133C0.222,-0.118 0.234,-0.11 0.245,-0.11C0.254,-0.11 0.261,-0.114 0.267,-0.123C0.272,-0.132 0.277,-0.146 0.28,-0.165L0.307,-0.315Z" style="fill:white;fill-rule:nonzero;"/>
            </g>
            <g transform="matrix(1333.33,0,0,1333.33,3588.1,8784.3)">
                <path d="M0.15,0.005C0.12,0.005 0.095,-0.009 0.077,-0.037C0.057,-0.064 0.048,-0.099 0.048,-0.14C0.048,-0.19 0.051,-0.236 0.058,-0.278C0.065,-0.319 0.076,-0.363 0.091,-0.41C0.098,-0.43 0.107,-0.444 0.119,-0.453C0.131,-0.462 0.15,-0.466 0.176,-0.466C0.191,-0.466 0.201,-0.464 0.207,-0.459C0.212,-0.454 0.215,-0.447 0.215,-0.438C0.215,-0.433 0.211,-0.415 0.204,-0.384C0.197,-0.359 0.192,-0.337 0.188,-0.317C0.175,-0.247 0.168,-0.2 0.168,-0.177C0.168,-0.163 0.17,-0.153 0.173,-0.148C0.176,-0.142 0.182,-0.139 0.189,-0.139C0.199,-0.139 0.212,-0.149 0.227,-0.169C0.242,-0.189 0.258,-0.219 0.275,-0.26C0.292,-0.301 0.308,-0.351 0.324,-0.41C0.329,-0.43 0.338,-0.444 0.349,-0.453C0.36,-0.462 0.376,-0.466 0.398,-0.466C0.413,-0.466 0.424,-0.464 0.43,-0.461C0.436,-0.457 0.439,-0.45 0.439,-0.44C0.439,-0.423 0.431,-0.378 0.414,-0.303C0.395,-0.218 0.386,-0.165 0.386,-0.145C0.386,-0.132 0.389,-0.123 0.394,-0.116C0.399,-0.109 0.406,-0.105 0.415,-0.105C0.428,-0.105 0.444,-0.113 0.463,-0.13C0.481,-0.146 0.505,-0.172 0.536,-0.209C0.544,-0.218 0.553,-0.223 0.563,-0.223C0.572,-0.223 0.579,-0.219 0.584,-0.211C0.588,-0.203 0.591,-0.192 0.591,-0.178C0.591,-0.151 0.585,-0.131 0.572,-0.116C0.543,-0.081 0.513,-0.052 0.48,-0.029C0.447,-0.006 0.409,0.005 0.367,0.005C0.335,0.005 0.312,-0.007 0.297,-0.032C0.282,-0.057 0.274,-0.091 0.274,-0.136C0.263,-0.091 0.246,-0.056 0.223,-0.032C0.2,-0.007 0.176,0.005 0.15,0.005Z" style="fill:white;fill-rule:nonzero;"/>
            </g>
            <g transform="matrix(1333.33,0,0,1333.33,4204.1,8784.3)">
                <path d="M0.58,-0.307C0.589,-0.307 0.595,-0.303 0.6,-0.294C0.605,-0.285 0.607,-0.274 0.607,-0.261C0.607,-0.244 0.605,-0.232 0.6,-0.223C0.595,-0.214 0.588,-0.207 0.578,-0.204C0.538,-0.19 0.494,-0.182 0.446,-0.18C0.433,-0.125 0.407,-0.08 0.371,-0.046C0.333,-0.012 0.293,0.005 0.248,0.005C0.181,0.005 0.132,-0.021 0.101,-0.072C0.07,-0.123 0.055,-0.198 0.055,-0.295C0.055,-0.381 0.066,-0.474 0.087,-0.576C0.108,-0.677 0.139,-0.763 0.181,-0.834C0.222,-0.905 0.27,-0.94 0.327,-0.94C0.358,-0.94 0.382,-0.927 0.401,-0.901C0.42,-0.874 0.429,-0.84 0.429,-0.798C0.429,-0.743 0.419,-0.689 0.398,-0.635C0.377,-0.581 0.343,-0.524 0.295,-0.465C0.34,-0.462 0.376,-0.443 0.404,-0.41C0.432,-0.376 0.449,-0.334 0.454,-0.285C0.485,-0.287 0.523,-0.294 0.566,-0.305C0.57,-0.306 0.575,-0.307 0.58,-0.307ZM0.304,-0.841C0.291,-0.841 0.276,-0.821 0.261,-0.782C0.245,-0.742 0.23,-0.688 0.217,-0.62C0.204,-0.552 0.194,-0.478 0.187,-0.397C0.231,-0.478 0.266,-0.549 0.293,-0.611C0.319,-0.672 0.332,-0.727 0.332,-0.775C0.332,-0.796 0.33,-0.813 0.325,-0.824C0.32,-0.835 0.313,-0.841 0.304,-0.841ZM0.252,-0.101C0.273,-0.101 0.291,-0.11 0.307,-0.127C0.323,-0.144 0.334,-0.169 0.339,-0.202C0.318,-0.216 0.303,-0.234 0.292,-0.257C0.281,-0.28 0.275,-0.304 0.275,-0.329C0.275,-0.338 0.276,-0.351 0.279,-0.367L0.276,-0.367C0.249,-0.367 0.226,-0.354 0.208,-0.327C0.189,-0.3 0.18,-0.263 0.18,-0.218C0.18,-0.18 0.187,-0.151 0.202,-0.131C0.216,-0.111 0.233,-0.101 0.252,-0.101Z" style="fill:white;fill-rule:nonzero;"/>
            </g>
            <g transform="matrix(1333.33,0,0,1333.33,4834.77,8784.3)">
                <path d="M0.58,-0.307C0.589,-0.307 0.595,-0.303 0.6,-0.294C0.605,-0.285 0.607,-0.274 0.607,-0.261C0.607,-0.244 0.605,-0.232 0.6,-0.223C0.595,-0.214 0.588,-0.207 0.578,-0.204C0.538,-0.19 0.494,-0.182 0.446,-0.18C0.433,-0.125 0.407,-0.08 0.371,-0.046C0.333,-0.012 0.293,0.005 0.248,0.005C0.181,0.005 0.132,-0.021 0.101,-0.072C0.07,-0.123 0.055,-0.198 0.055,-0.295C0.055,-0.381 0.066,-0.474 0.087,-0.576C0.108,-0.677 0.139,-0.763 0.181,-0.834C0.222,-0.905 0.27,-0.94 0.327,-0.94C0.358,-0.94 0.382,-0.927 0.401,-0.901C0.42,-0.874 0.429,-0.84 0.429,-0.798C0.429,-0.743 0.419,-0.689 0.398,-0.635C0.377,-0.581 0.343,-0.524 0.295,-0.465C0.34,-0.462 0.376,-0.443 0.404,-0.41C0.432,-0.376 0.449,-0.334 0.454,-0.285C0.485,-0.287 0.523,-0.294 0.566,-0.305C0.57,-0.306 0.575,-0.307 0.58,-0.307ZM0.304,-0.841C0.291,-0.841 0.276,-0.821 0.261,-0.782C0.245,-0.742 0.23,-0.688 0.217,-0.62C0.204,-0.552 0.194,-0.478 0.187,-0.397C0.231,-0.478 0.266,-0.549 0.293,-0.611C0.319,-0.672 0.332,-0.727 0.332,-0.775C0.332,-0.796 0.33,-0.813 0.325,-0.824C0.32,-0.835 0.313,-0.841 0.304,-0.841ZM0.252,-0.101C0.273,-0.101 0.291,-0.11 0.307,-0.127C0.323,-0.144 0.334,-0.169 0.339,-0.202C0.318,-0.216 0.303,-0.234 0.292,-0.257C0.281,-0.28 0.275,-0.304 0.275,-0.329C0.275,-0.338 0.276,-0.351 0.279,-0.367L0.276,-0.367C0.249,-0.367 0.226,-0.354 0.208,-0.327C0.189,-0.3 0.18,-0.263 0.18,-0.218C0.18,-0.18 0.187,-0.151 0.202,-0.131C0.216,-0.111 0.233,-0.101 0.252,-0.101Z" style="fill:white;fill-rule:nonzero;"/>
            </g>
            <g transform="matrix(1333.33,0,0,1333.33,5465.43,8784.3)">
                <path d="M0.494,-0.223C0.503,-0.223 0.509,-0.219 0.515,-0.211C0.52,-0.203 0.522,-0.192 0.522,-0.178C0.522,-0.151 0.516,-0.131 0.503,-0.116C0.478,-0.086 0.444,-0.058 0.399,-0.033C0.354,-0.008 0.305,0.005 0.254,0.005C0.184,0.005 0.13,-0.014 0.091,-0.052C0.052,-0.09 0.033,-0.142 0.033,-0.208C0.033,-0.254 0.043,-0.297 0.062,-0.337C0.081,-0.376 0.108,-0.408 0.143,-0.431C0.177,-0.454 0.216,-0.466 0.259,-0.466C0.298,-0.466 0.329,-0.455 0.352,-0.432C0.375,-0.409 0.387,-0.377 0.387,-0.338C0.387,-0.292 0.371,-0.253 0.338,-0.22C0.305,-0.187 0.249,-0.16 0.17,-0.141C0.187,-0.11 0.218,-0.095 0.265,-0.095C0.295,-0.095 0.329,-0.106 0.368,-0.127C0.406,-0.148 0.439,-0.175 0.467,-0.209C0.475,-0.218 0.484,-0.223 0.494,-0.223ZM0.242,-0.368C0.217,-0.368 0.197,-0.354 0.18,-0.325C0.163,-0.296 0.154,-0.262 0.154,-0.221L0.154,-0.219C0.193,-0.228 0.224,-0.242 0.247,-0.261C0.27,-0.28 0.281,-0.301 0.281,-0.326C0.281,-0.339 0.278,-0.349 0.271,-0.357C0.264,-0.364 0.254,-0.368 0.242,-0.368Z" style="fill:white;fill-rule:nonzero;"/>
            </g>
            <g transform="matrix(1333.33,0,0,1333.33,5989.43,8784.3)">
                <path d="M0.452,-0.329C0.467,-0.329 0.479,-0.324 0.49,-0.314C0.5,-0.303 0.505,-0.29 0.505,-0.275C0.505,-0.266 0.503,-0.257 0.499,-0.247C0.488,-0.222 0.473,-0.202 0.454,-0.185C0.435,-0.168 0.413,-0.16 0.39,-0.16C0.371,-0.16 0.356,-0.167 0.343,-0.18C0.33,-0.193 0.323,-0.211 0.323,-0.234C0.323,-0.247 0.324,-0.26 0.325,-0.275C0.326,-0.286 0.327,-0.293 0.327,-0.297C0.327,-0.302 0.326,-0.306 0.324,-0.309C0.321,-0.312 0.318,-0.313 0.315,-0.313C0.306,-0.313 0.293,-0.302 0.277,-0.28C0.261,-0.257 0.245,-0.228 0.229,-0.191C0.213,-0.154 0.2,-0.116 0.19,-0.075C0.183,-0.043 0.174,-0.022 0.165,-0.011C0.156,-0 0.14,0.005 0.119,0.005C0.094,0.005 0.076,-0.008 0.066,-0.035C0.055,-0.062 0.05,-0.104 0.05,-0.163C0.05,-0.25 0.062,-0.332 0.087,-0.41C0.093,-0.429 0.103,-0.444 0.117,-0.453C0.13,-0.462 0.149,-0.466 0.174,-0.466C0.187,-0.466 0.197,-0.464 0.202,-0.461C0.207,-0.458 0.21,-0.451 0.21,-0.442C0.21,-0.431 0.205,-0.407 0.195,-0.37C0.188,-0.343 0.183,-0.32 0.179,-0.3C0.175,-0.28 0.172,-0.255 0.169,-0.226C0.191,-0.283 0.216,-0.33 0.243,-0.366C0.27,-0.402 0.297,-0.428 0.323,-0.443C0.349,-0.458 0.373,-0.466 0.394,-0.466C0.413,-0.466 0.428,-0.46 0.439,-0.45C0.449,-0.439 0.454,-0.422 0.454,-0.401C0.454,-0.388 0.45,-0.364 0.443,-0.329L0.452,-0.329Z" style="fill:white;fill-rule:nonzero;"/>
            </g>
        </g>
        <g transform="matrix(2.13038,0,0,2.54195,11873.6,-15002.6)">
            <g transform="matrix(1333.33,0,0,1333.33,2414.77,8784.3)">
                <path d="M0.308,0.005C0.269,0.005 0.226,0.002 0.177,-0.005C0.15,-0.008 0.132,-0.015 0.122,-0.026C0.112,-0.037 0.108,-0.054 0.109,-0.078C0.114,-0.144 0.125,-0.226 0.142,-0.323C0.159,-0.42 0.18,-0.513 0.205,-0.603C0.21,-0.62 0.219,-0.631 0.233,-0.638C0.247,-0.645 0.265,-0.648 0.288,-0.648C0.329,-0.648 0.349,-0.637 0.349,-0.614C0.349,-0.605 0.347,-0.594 0.343,-0.582C0.326,-0.529 0.308,-0.457 0.291,-0.368C0.274,-0.278 0.261,-0.192 0.254,-0.111C0.274,-0.109 0.297,-0.108 0.322,-0.108C0.439,-0.108 0.526,-0.143 0.584,-0.214C0.641,-0.285 0.67,-0.379 0.67,-0.497C0.67,-0.576 0.647,-0.638 0.602,-0.681C0.557,-0.724 0.493,-0.746 0.41,-0.746C0.357,-0.746 0.304,-0.738 0.252,-0.721C0.199,-0.704 0.152,-0.682 0.11,-0.655C0.101,-0.649 0.092,-0.646 0.082,-0.646C0.071,-0.646 0.062,-0.651 0.055,-0.661C0.048,-0.67 0.045,-0.682 0.045,-0.696C0.045,-0.712 0.048,-0.725 0.053,-0.736C0.058,-0.746 0.067,-0.755 0.08,-0.764C0.126,-0.795 0.18,-0.819 0.242,-0.836C0.304,-0.852 0.364,-0.86 0.421,-0.86C0.502,-0.86 0.573,-0.846 0.632,-0.818C0.691,-0.789 0.737,-0.748 0.769,-0.693C0.801,-0.638 0.817,-0.572 0.817,-0.495C0.817,-0.394 0.797,-0.307 0.757,-0.232C0.717,-0.157 0.659,-0.098 0.582,-0.057C0.505,-0.016 0.414,0.005 0.308,0.005Z" style="fill:white;fill-rule:nonzero;"/>
            </g>
            <g transform="matrix(1333.33,0,0,1333.33,3516.1,8784.3)">
                <path d="M0.15,0.005C0.12,0.005 0.095,-0.009 0.077,-0.037C0.057,-0.064 0.048,-0.099 0.048,-0.14C0.048,-0.19 0.051,-0.236 0.058,-0.278C0.065,-0.319 0.076,-0.363 0.091,-0.41C0.098,-0.43 0.107,-0.444 0.119,-0.453C0.131,-0.462 0.15,-0.466 0.176,-0.466C0.191,-0.466 0.201,-0.464 0.207,-0.459C0.212,-0.454 0.215,-0.447 0.215,-0.438C0.215,-0.433 0.211,-0.415 0.204,-0.384C0.197,-0.359 0.192,-0.337 0.188,-0.317C0.175,-0.247 0.168,-0.2 0.168,-0.177C0.168,-0.163 0.17,-0.153 0.173,-0.148C0.176,-0.142 0.182,-0.139 0.189,-0.139C0.199,-0.139 0.212,-0.149 0.227,-0.169C0.242,-0.189 0.258,-0.219 0.275,-0.26C0.292,-0.301 0.308,-0.351 0.324,-0.41C0.329,-0.43 0.338,-0.444 0.349,-0.453C0.36,-0.462 0.376,-0.466 0.398,-0.466C0.413,-0.466 0.424,-0.464 0.43,-0.461C0.436,-0.457 0.439,-0.45 0.439,-0.44C0.439,-0.423 0.431,-0.378 0.414,-0.303C0.395,-0.218 0.386,-0.165 0.386,-0.145C0.386,-0.132 0.389,-0.123 0.394,-0.116C0.399,-0.109 0.406,-0.105 0.415,-0.105C0.428,-0.105 0.444,-0.113 0.463,-0.13C0.481,-0.146 0.505,-0.172 0.536,-0.209C0.544,-0.218 0.553,-0.223 0.563,-0.223C0.572,-0.223 0.579,-0.219 0.584,-0.211C0.588,-0.203 0.591,-0.192 0.591,-0.178C0.591,-0.151 0.585,-0.131 0.572,-0.116C0.543,-0.081 0.513,-0.052 0.48,-0.029C0.447,-0.006 0.409,0.005 0.367,0.005C0.335,0.005 0.312,-0.007 0.297,-0.032C0.282,-0.057 0.274,-0.091 0.274,-0.136C0.263,-0.091 0.246,-0.056 0.223,-0.032C0.2,-0.007 0.176,0.005 0.15,0.005Z" style="fill:white;fill-rule:nonzero;"/>
            </g>
            <g transform="matrix(1333.33,0,0,1333.33,4132.1,8784.3)">
                <path d="M0.239,0.005C0.174,0.005 0.123,-0.014 0.087,-0.051C0.05,-0.088 0.032,-0.136 0.032,-0.197C0.032,-0.251 0.043,-0.298 0.064,-0.339C0.085,-0.38 0.113,-0.411 0.147,-0.433C0.181,-0.455 0.217,-0.466 0.254,-0.466C0.291,-0.466 0.319,-0.455 0.34,-0.434C0.36,-0.412 0.37,-0.384 0.37,-0.35C0.37,-0.322 0.364,-0.298 0.352,-0.279C0.339,-0.26 0.323,-0.25 0.303,-0.25C0.29,-0.25 0.28,-0.253 0.273,-0.259C0.265,-0.265 0.261,-0.273 0.261,-0.284C0.261,-0.289 0.262,-0.294 0.263,-0.3C0.264,-0.306 0.265,-0.31 0.266,-0.313C0.269,-0.323 0.271,-0.332 0.271,-0.341C0.271,-0.35 0.269,-0.356 0.265,-0.361C0.26,-0.366 0.254,-0.368 0.246,-0.368C0.231,-0.368 0.216,-0.361 0.203,-0.348C0.19,-0.334 0.179,-0.315 0.171,-0.292C0.163,-0.269 0.159,-0.243 0.159,-0.215C0.159,-0.138 0.193,-0.099 0.26,-0.099C0.287,-0.099 0.317,-0.108 0.349,-0.127C0.38,-0.145 0.411,-0.172 0.442,-0.209C0.45,-0.218 0.459,-0.223 0.469,-0.223C0.478,-0.223 0.485,-0.219 0.49,-0.211C0.495,-0.203 0.497,-0.192 0.497,-0.178C0.497,-0.153 0.491,-0.132 0.478,-0.116C0.447,-0.077 0.409,-0.048 0.366,-0.027C0.322,-0.006 0.28,0.005 0.239,0.005Z" style="fill:white;fill-rule:nonzero;"/>
            </g>
            <g transform="matrix(1333.33,0,0,1333.33,4622.77,8784.3)">
                <path d="M0.473,-0.104C0.5,-0.099 0.514,-0.084 0.514,-0.059C0.514,-0.042 0.507,-0.028 0.492,-0.015C0.476,-0.002 0.455,0.005 0.427,0.005C0.379,0.005 0.34,-0.01 0.31,-0.04C0.279,-0.069 0.264,-0.108 0.264,-0.156C0.264,-0.182 0.277,-0.201 0.304,-0.212C0.333,-0.225 0.354,-0.238 0.367,-0.253C0.38,-0.267 0.386,-0.284 0.386,-0.305C0.386,-0.317 0.384,-0.326 0.379,-0.332C0.374,-0.338 0.367,-0.341 0.36,-0.341C0.342,-0.341 0.322,-0.328 0.301,-0.302C0.279,-0.276 0.259,-0.243 0.24,-0.202C0.221,-0.161 0.207,-0.118 0.196,-0.075C0.189,-0.044 0.18,-0.023 0.171,-0.012C0.161,-0 0.146,0.005 0.125,0.005C0.104,0.005 0.089,-0.003 0.08,-0.018C0.07,-0.033 0.063,-0.056 0.06,-0.087C0.057,-0.118 0.055,-0.164 0.055,-0.225C0.055,-0.328 0.066,-0.435 0.087,-0.546C0.108,-0.657 0.138,-0.751 0.18,-0.827C0.221,-0.902 0.27,-0.94 0.327,-0.94C0.358,-0.94 0.383,-0.927 0.402,-0.901C0.421,-0.874 0.43,-0.84 0.43,-0.798C0.43,-0.731 0.41,-0.661 0.371,-0.589C0.332,-0.516 0.268,-0.432 0.179,-0.335C0.177,-0.3 0.176,-0.265 0.176,-0.228C0.208,-0.311 0.245,-0.372 0.286,-0.41C0.327,-0.447 0.366,-0.466 0.402,-0.466C0.435,-0.466 0.462,-0.455 0.483,-0.432C0.503,-0.409 0.513,-0.381 0.513,-0.348C0.513,-0.311 0.504,-0.278 0.485,-0.247C0.466,-0.216 0.434,-0.189 0.389,-0.165C0.393,-0.145 0.401,-0.131 0.414,-0.124C0.426,-0.116 0.446,-0.109 0.473,-0.104ZM0.306,-0.841C0.294,-0.841 0.281,-0.824 0.266,-0.79C0.251,-0.755 0.237,-0.709 0.224,-0.651C0.21,-0.592 0.199,-0.529 0.19,-0.46C0.231,-0.509 0.266,-0.562 0.293,-0.619C0.32,-0.676 0.333,-0.728 0.333,-0.775C0.333,-0.796 0.331,-0.813 0.326,-0.824C0.321,-0.835 0.315,-0.841 0.306,-0.841Z" style="fill:white;fill-rule:nonzero;"/>
            </g>
        </g>
    </g>
</svg>
